<svg xmlns="http://www.w3.org/2000/svg" viewBox="0 0 120 120"><defs><style>.cls-1{fill:#e7332b;}</style></defs><g id="Layer_2" data-name="Layer 2"><g id="Layer_1-2" data-name="Layer 1"><path class="cls-1" d="M0,0V120H120V0ZM78.78,53.16l-1.2,10.07a1.91,1.91,0,0,1-1.9,1.68H64.9l-.06,31.23H51.22l.06-31.23H43.16A1.91,1.91,0,0,1,41.25,63l0-10.07A1.91,1.91,0,0,1,43.12,51h8.1V41.29c0-11.29,6.9-17.43,17-17.43h8.26a1.92,1.92,0,0,1,1.91,1.91v8.49a1.9,1.9,0,0,1-1.91,1.91H71.38c-5.48,0-6.54,2.6-6.54,6.42V51h12A1.92,1.92,0,0,1,78.78,53.16Z"/></g></g></svg>