<svg xmlns="http://www.w3.org/2000/svg" viewBox="0 0 120 120"><defs><style>.cls-1{fill:#e7332b;}</style></defs><g id="Layer_2" data-name="Layer 2"><g id="Layer_1-2" data-name="Layer 1"><path class="cls-1" d="M60,48.58A11.42,11.42,0,1,0,71.42,60,11.42,11.42,0,0,0,60,48.58ZM0,0V120H120V0ZM96.14,74.61A21.56,21.56,0,0,1,74.61,96.14H45.39A21.56,21.56,0,0,1,23.86,74.61V45.39A21.56,21.56,0,0,1,45.39,23.86H74.61A21.56,21.56,0,0,1,96.14,45.39ZM74.61,31.13H45.39A14.25,14.25,0,0,0,31.13,45.39V74.61A14.25,14.25,0,0,0,45.39,88.87H74.61A14.25,14.25,0,0,0,88.87,74.61V45.39A14.25,14.25,0,0,0,74.61,31.13ZM60,78.7A18.7,18.7,0,1,1,78.7,60,18.72,18.72,0,0,1,60,78.7ZM78.73,45.92a4.48,4.48,0,1,1,4.48-4.47A4.48,4.48,0,0,1,78.73,45.92Z"/></g></g></svg>