<svg xmlns="http://www.w3.org/2000/svg" viewBox="0 0 120 120"><defs><style>.cls-1{fill:#e7332b;}</style></defs><g id="Layer_2" data-name="Layer 2"><g id="Layer_1-2" data-name="Layer 1"><path class="cls-1" d="M0,0V120H120V0ZM44.73,88a2,2,0,0,1-2,2H34.08a2,2,0,0,1-2-2V51.82a2,2,0,0,1,2-2H42.7a2,2,0,0,1,2,2ZM38.39,46.39a8.2,8.2,0,1,1,8.19-8.2A8.2,8.2,0,0,1,38.39,46.39ZM89.8,88.14A1.86,1.86,0,0,1,87.94,90H78.68a1.86,1.86,0,0,1-1.86-1.86v-17c0-2.53.74-11.09-6.61-11.09-5.7,0-6.86,5.86-7.09,8.49V88.14A1.87,1.87,0,0,1,61.25,90h-9a1.86,1.86,0,0,1-1.86-1.86V51.66A1.86,1.86,0,0,1,52.3,49.8h9a1.87,1.87,0,0,1,1.87,1.86v3.15c2.11-3.17,5.25-5.62,11.95-5.62C89.88,49.19,89.8,63,89.8,70.64Z"/></g></g></svg>