<svg xmlns="http://www.w3.org/2000/svg" viewBox="0 0 120 120"><defs><style>.cls-1{fill:#e7332b;}</style></defs><g id="Layer_2" data-name="Layer 2"><g id="Layer_1-2" data-name="Layer 1"><path class="cls-1" d="M0,0V120H120V0ZM95.92,38.17A30.49,30.49,0,0,1,89.74,45a2.64,2.64,0,0,0-1,2.06v.24A43.34,43.34,0,0,1,86,62.31a44.17,44.17,0,0,1-8.21,13.75,40.34,40.34,0,0,1-13.41,10A43.28,43.28,0,0,1,46,90a42.72,42.72,0,0,1-21.45-5.78A1.24,1.24,0,0,1,24,82.86a1.19,1.19,0,0,1,1.17-.9h1.79A28.76,28.76,0,0,0,43,77.08,15.58,15.58,0,0,1,30.7,66.48a.81.81,0,0,1,.92-1,13.68,13.68,0,0,0,2.62.25h.34a15.59,15.59,0,0,1-9.09-14.35.82.82,0,0,1,1.21-.7A13.67,13.67,0,0,0,30.25,52a15.55,15.55,0,0,1-2.53-18.9.81.81,0,0,1,1.33-.1,40.78,40.78,0,0,0,28,15h.05a.57.57,0,0,0,.57-.63,16.58,16.58,0,0,1,.37-5.72A15.05,15.05,0,0,1,68.22,30.76,16.82,16.82,0,0,1,73.15,30a15.58,15.58,0,0,1,10.29,3.88,2,2,0,0,0,1.81.45,28.51,28.51,0,0,0,7.6-3.14.82.82,0,0,1,1.19.95A15.59,15.59,0,0,1,90,38.66a29.07,29.07,0,0,0,5-1.68A.81.81,0,0,1,95.92,38.17Z"/></g></g></svg>