<svg xmlns="http://www.w3.org/2000/svg" viewBox="0 0 90 74.86"><defs><style>.cls-1{fill:#fff;}</style></defs><g id="Layer_2" data-name="Layer 2"><g id="Layer_1-2" data-name="Layer 1"><path class="cls-1" d="M88.57,8.71a34.89,34.89,0,0,1-6.21,2.09,19.28,19.28,0,0,0,5.11-8.13A1,1,0,0,0,86,1.49,36.44,36.44,0,0,1,76.5,5.41a2.88,2.88,0,0,1-.59.07,2.5,2.5,0,0,1-1.66-.64A19.44,19.44,0,0,0,61.41,0a20.75,20.75,0,0,0-6.15,1A18.79,18.79,0,0,0,42.59,14.49a20.91,20.91,0,0,0-.46,7.15.7.7,0,0,1-.71.78h-.07a50.88,50.88,0,0,1-35-18.68,1,1,0,0,0-1.66.13A19.42,19.42,0,0,0,7.88,27.46a17.56,17.56,0,0,1-4.43-1.72,1,1,0,0,0-1.51.88A19.42,19.42,0,0,0,13.28,44.51h-.42a18.18,18.18,0,0,1-3.27-.31,1,1,0,0,0-1.15,1.3A19.43,19.43,0,0,0,23.8,58.74,35.8,35.8,0,0,1,3.74,64.83H1.5A1.48,1.48,0,0,0,.05,66a1.52,1.52,0,0,0,.73,1.7,53.27,53.27,0,0,0,26.76,7.21A54,54,0,0,0,50.41,70,50.45,50.45,0,0,0,67.14,57.47,54.88,54.88,0,0,0,77.39,40.31a54.13,54.13,0,0,0,3.48-18.78v-.29a3.29,3.29,0,0,1,1.24-2.57,38.12,38.12,0,0,0,7.71-8.47,1,1,0,0,0-1.25-1.49Z"/></g></g></svg>